<svg xmlns="http://www.w3.org/2000/svg" version="1.1" xmlns:xlink="http://www.w3.org/1999/xlink" xmlns:svgjs="http://svgjs.dev/svgjs" width="1500" height="1500" viewBox="0 0 1500 1500"><rect width="1500" height="1500" fill="#ffffff"></rect><g transform="matrix(0.6666666666666666,0,0,0.6666666666666666,249.39393939393938,435.99032258064517)"><svg viewBox="0 0 396 248" data-background-color="#60777f" preserveAspectRatio="xMidYMid meet" height="939" width="1500" xmlns="http://www.w3.org/2000/svg" xmlns:xlink="http://www.w3.org/1999/xlink"><g id="tight-bounds" transform="matrix(1,0,0,1,0.2400000000000091,0.4000000000000057)"><svg viewBox="0 0 395.52 247.2" height="247.2" width="395.52"><g><svg></svg></g><g><svg viewBox="0 0 395.52 247.2" height="247.2" width="395.52"><mask id="e0534e01-b617-4eec-a63a-345615f4173a"><rect width="395.52" height="247.2" fill="white"></rect><g transform="matrix(1,0,0,1,0,95.63852532072923)" id="clone"><svg viewBox="0 0 395.52 55.92294935854152" height="55.92294935854152" width="395.52"><g><svg viewBox="0 0 395.52 55.92294935854152" height="55.92294935854152" width="395.52"><g><svg viewBox="0 0 395.52 55.92294935854152" height="55.92294935854152" width="395.52"><g><svg viewBox="0 0 395.52 55.92294935854152" height="55.92294935854152" width="395.52"><g id="SvgjsG8763"><svg viewBox="0 0 395.52 55.92294935854152" height="55.92294935854152" width="395.52" id="SvgjsSvg8762"><g><svg viewBox="0 0 395.52 55.92294935854152" height="55.92294935854152" width="395.52"><g transform="matrix(1,0,0,1,0,0)"><svg width="395.52" viewBox="-0.8500000000000001 -39.45 371.22 53.35" height="55.92294935854152" data-palette-color="#ffffff"><path d="M3 0.15L3 0.15Q2.55 0.15 2.35-0.2 2.15-0.55 2.15-0.95L2.15-0.95Q2.2-1.8 2.55-1.9 2.9-2 3.4-2L3.4-2Q5-2 5.65-2.58 6.3-3.15 6.48-4.03 6.65-4.9 6.65-5.85L6.65-5.85 6.65-25.7Q6.65-26.65 6.48-27.53 6.3-28.4 5.65-28.98 5-29.55 3.4-29.55L3.4-29.55Q2.9-29.55 2.55-29.65 2.2-29.75 2.15-30.6L2.15-30.6Q2.15-31 2.35-31.35 2.55-31.7 3-31.7L3-31.7Q4.65-31.65 6.05-31.6 7.45-31.55 8.95-31.55L8.95-31.55 16.75-31.55Q21.55-31.55 25.45-29.65 29.35-27.75 31.65-24.2 33.95-20.65 33.95-15.6L33.95-15.6Q33.95-11.6 32.4-8.65 30.85-5.7 28.25-3.78 25.65-1.85 22.43-0.93 19.2 0 15.85 0L15.85 0 8.95 0Q7.45 0 6.05 0.03 4.65 0.05 3 0.15ZM16.6-1.85L16.6-1.85Q20.65-1.85 23.15-3.58 25.65-5.3 26.78-8.4 27.9-11.5 27.9-15.6L27.9-15.6Q27.9-19.7 26.45-22.9 25-26.1 22.23-27.93 19.45-29.75 15.5-29.75L15.5-29.75Q14.7-29.75 13.4-29.73 12.1-29.7 11.6-29.7L11.6-29.7 11.6-5.25Q11.6-3.25 12.83-2.55 14.05-1.85 16.6-1.85ZM44.4 0.6L44.4 0.6Q41.35 0.6 39.52-1.15 37.7-2.9 37.7-5.35L37.7-5.35Q37.7-7.9 39.02-9.35 40.35-10.8 42.52-11.5 44.7-12.2 47.27-12.45 49.85-12.7 52.3-12.85L52.3-12.85 52.3-16.8Q52.3-19.15 51.12-20.48 49.95-21.8 47.15-21.8L47.15-21.8Q45.75-21.8 44.52-20.9 43.3-20 43.3-18.3L43.3-18.3Q43.3-17.5 43.7-16.95 44.1-16.4 44.5-16.1 44.9-15.8 44.9-15.7L44.9-15.7Q44.9-15.5 44.32-14.98 43.75-14.45 42.75-14.45L42.75-14.45Q41.2-14.45 40.35-15.6 39.5-16.75 39.5-18.15L39.5-18.15Q39.5-20.05 40.67-21.15 41.85-22.25 43.7-22.75 45.55-23.25 47.45-23.25L47.45-23.25Q49.7-23.25 51.82-22.7 53.95-22.15 55.32-20.6 56.7-19.05 56.7-15.95L56.7-15.95 56.7-4.3Q56.75-3.8 56.95-3.1 57.15-2.4 57.72-1.88 58.3-1.35 59.3-1.35L59.3-1.35Q59.65-1.35 59.85-1.23 60.05-1.1 60.05-0.55L60.05-0.55Q60.05-0.1 59.55 0.15 59.05 0.4 58.4 0.5 57.75 0.6 57.3 0.6L57.3 0.6Q55.45 0.6 54-0.48 52.55-1.55 52.3-3.45L52.3-3.45Q51.2-1.45 49.02-0.43 46.85 0.6 44.4 0.6ZM46-2.1L46-2.1Q47.7-2.1 49.12-2.95 50.55-3.8 51.42-5.28 52.3-6.75 52.3-8.55L52.3-8.55 52.3-11.4Q47.15-11.05 44.95-9.75 42.75-8.45 42.75-5.5L42.75-5.5Q42.75-2.1 46-2.1ZM63.25 0.15L63.25 0.15Q62.9 0.15 62.67-0.18 62.45-0.5 62.45-0.85L62.45-0.85Q62.55-1.6 62.84-1.68 63.15-1.75 63.65-1.75L63.65-1.75Q65.05-1.75 65.55-2.23 66.05-2.7 66.12-3.5 66.2-4.3 66.2-5.15L66.2-5.15 66.2-16.6Q66.2-17.5 66.12-18.28 66.05-19.05 65.55-19.53 65.05-20 63.65-20L63.65-20Q63.2-20 62.82-20.13 62.45-20.25 62.45-21L62.45-21Q62.45-21.75 63.25-21.9L63.25-21.9Q65.55-22.25 66.77-22.6 68-22.95 68.62-23.2 69.25-23.45 69.75-23.5L69.75-23.5Q70.14-23.55 70.42-23.35 70.7-23.15 70.7-22.55L70.7-22.55 70.7-19.4 70.84-19.4Q71.84-20.35 72.9-21.23 73.95-22.1 75.37-22.68 76.8-23.25 78.9-23.25L78.9-23.25Q82.3-23.25 84.3-21.2 86.3-19.15 86.3-15.8L86.3-15.8 86.3-5.15Q86.3-4.3 86.37-3.5 86.45-2.7 86.97-2.23 87.5-1.75 88.9-1.75L88.9-1.75Q89.34-1.75 89.67-1.68 90-1.6 90.05-0.85L90.05-0.85Q90.05-0.5 89.84-0.18 89.65 0.15 89.25 0.15L89.25 0.15Q87.8 0.05 86.57 0.03 85.34 0 84 0L84 0Q82.65 0 81.45 0.03 80.25 0.05 78.8 0.15L78.8 0.15Q78.45 0.15 78.22-0.18 78-0.5 78-0.85L78-0.85Q78.05-1.6 78.37-1.68 78.7-1.75 79.15-1.75L79.15-1.75Q80.55-1.75 81.07-2.23 81.59-2.7 81.67-3.5 81.75-4.3 81.75-5.15L81.75-5.15 81.75-15.75Q81.75-17.4 81.02-18.45 80.3-19.5 79.2-20 78.09-20.5 76.95-20.5L76.95-20.5Q75.25-20.5 73.95-19.88 72.65-19.25 71.84-18.45 71.05-17.65 70.75-17.05L70.75-17.05 70.75-5.15Q70.75-4.3 70.82-3.5 70.9-2.7 71.42-2.23 71.95-1.75 73.34-1.75L73.34-1.75Q73.8-1.75 74.12-1.68 74.45-1.6 74.5-0.85L74.5-0.85Q74.5-0.5 74.3-0.18 74.09 0.15 73.7 0.15L73.7 0.15Q72.25 0.05 71.02 0.03 69.8 0 68.45 0L68.45 0Q67.09 0 65.89 0.03 64.7 0.05 63.25 0.15ZM94.54 10.9L94.54 10.9Q93.09 10.9 91.82 10.25 90.54 9.6 89.79 8.53 89.04 7.45 89.04 6.2L89.04 6.2Q89.09 4.85 89.62 4.13 90.14 3.4 90.79 3.13 91.44 2.85 91.89 2.8 92.34 2.75 92.24 2.75L92.24 2.75Q93.19 2.75 93.69 3.13 94.19 3.5 94.19 3.75L94.19 3.75Q94.19 3.85 93.82 4.23 93.44 4.6 93.39 5.55L93.39 5.55Q93.34 6.45 93.94 7.3 94.54 8.15 95.79 8.15L95.79 8.15Q97.19 8.15 98.34 7.13 99.49 6.1 100.39 4.6 101.29 3.1 101.94 1.7L101.94 1.7Q102.29 0.6 101.89-0.6L101.89-0.6Q100.69-3.3 99.54-6.35 98.39-9.4 97.32-12.25 96.24-15.1 95.19-17.25L95.19-17.25Q94.39-19.1 93.64-19.88 92.89-20.65 91.39-20.85L91.39-20.85Q90.74-20.95 90.52-21.05 90.29-21.15 90.24-21.8L90.24-21.8Q90.19-22.65 90.72-22.73 91.24-22.8 91.99-22.85L91.99-22.85Q95.09-23 96.84-21.95 98.59-20.9 99.69-18.4L99.69-18.4Q100.39-16.85 101.24-14.55 102.09-12.25 103.04-9.9 103.99-7.55 104.89-5.65L104.89-5.65 105.04-5.65 109.94-18.75Q110.44-20.2 109.99-20.55 109.54-20.9 108.04-20.9L108.04-20.9Q107.59-20.9 107.29-20.98 106.99-21.05 106.94-21.8L106.94-21.8Q106.94-22.1 107.12-22.45 107.29-22.8 107.64-22.8L107.64-22.8Q109.09-22.75 110.14-22.7 111.19-22.65 112.49-22.65L112.49-22.65Q113.39-22.65 113.94-22.68 114.49-22.7 115.09-22.73 115.69-22.75 116.64-22.8L116.64-22.8Q117.04-22.8 117.22-22.45 117.39-22.1 117.39-21.8L117.39-21.8Q117.34-21.05 117.02-20.98 116.69-20.9 116.29-20.9L116.29-20.9Q114.64-20.9 113.67-20.3 112.69-19.7 111.99-17.95L111.99-17.95Q111.99-17.95 111.47-16.65 110.94-15.35 110.09-13.25 109.24-11.15 108.29-8.83 107.34-6.5 106.49-4.4 105.64-2.3 105.09-0.95 104.54 0.4 104.49 0.5L104.49 0.5Q103.84 2.05 102.92 3.88 101.99 5.7 100.77 7.28 99.54 8.85 97.99 9.88 96.44 10.9 94.54 10.9ZM129.34 0.6L129.34 0.6Q125.94 0.6 123.94-1.45 121.94-3.5 121.94-6.85L121.94-6.85 121.94-16.1Q121.94-17 121.87-17.78 121.79-18.55 121.29-19.03 120.79-19.5 119.39-19.5L119.39-19.5Q118.94-19.5 118.56-19.63 118.19-19.75 118.19-20.5L118.19-20.5Q118.19-21.25 118.99-21.4L118.99-21.4Q121.29-21.75 122.52-22.1 123.74-22.45 124.39-22.7 125.04-22.95 125.54-23L125.54-23Q125.94-23.05 126.22-22.85 126.49-22.65 126.49-22.05L126.49-22.05 126.49-6.9Q126.49-5.25 127.22-4.2 127.94-3.15 129.04-2.65 130.14-2.15 131.29-2.15L131.29-2.15Q133.04-2.15 134.34-2.78 135.64-3.4 136.44-4.23 137.24-5.05 137.49-5.6L137.49-5.6 137.49-16.1Q137.49-17 137.42-17.78 137.34-18.55 136.84-19.03 136.34-19.5 134.94-19.5L134.94-19.5Q134.49-19.5 134.12-19.63 133.74-19.75 133.74-20.5L133.74-20.5Q133.74-21.25 134.54-21.4L134.54-21.4Q136.84-21.75 138.06-22.1 139.29-22.45 139.94-22.7 140.59-22.95 141.09-23L141.09-23Q141.49-23.05 141.77-22.85 142.04-22.65 142.04-22.05L142.04-22.05 142.04-4.75Q142.04-1.8 145.99-1.8L145.99-1.8Q146.54-1.8 146.69-1.5 146.84-1.2 146.84-0.85L146.84-0.85Q146.84-0.15 145.99 0L145.99 0 137.94 0.55Q137.59 0.55 137.54 0.25 137.49-0.05 137.49-0.45L137.49-0.45 137.49-3.25 137.39-3.25Q136.44-2.35 135.37-1.45 134.29-0.55 132.87 0.03 131.44 0.6 129.34 0.6ZM161.34 0.15L161.34 0.15Q160.84 0.15 160.64-0.2 160.44-0.55 160.44-0.95L160.44-0.95Q160.49-1.8 160.84-1.9 161.19-2 161.69-2L161.69-2Q163.29-2 163.94-2.58 164.59-3.15 164.76-4.03 164.94-4.9 164.94-5.85L164.94-5.85 164.94-25.65Q164.94-26.6 164.76-27.5 164.59-28.4 163.94-28.98 163.29-29.55 161.69-29.55L161.69-29.55Q161.19-29.55 160.84-29.65 160.49-29.75 160.44-30.6L160.44-30.6Q160.44-31 160.64-31.35 160.84-31.7 161.34-31.7L161.34-31.7Q162.94-31.65 164.36-31.6 165.79-31.55 167.29-31.55L167.29-31.55 175.89-31.55Q179.94-31.5 182.46-30.3 184.99-29.1 186.14-27.25 187.29-25.4 187.29-23.4L187.29-23.4Q187.29-20.75 185.16-18.4 183.04-16.05 179.19-15.05L179.19-15.05Q181.09-12.05 183.04-9.03 184.99-6 187.54-3.35L187.54-3.35Q188.24-2.8 188.91-2.45 189.59-2.1 190.54-2L190.54-2Q190.94-1.95 191.34-1.88 191.74-1.8 191.79-0.95L191.79-0.95Q191.79-0.55 191.59-0.2 191.39 0.15 190.89 0.15L190.89 0.15Q189.84 0.1 189.21 0.08 188.59 0.05 187.99 0.03 187.39 0 186.39 0L186.39 0Q184.34-0.4 182.91-1.45 181.49-2.5 180.14-4.35L180.14-4.35Q178.74-6.25 177.54-8.2 176.34-10.15 175.19-12L175.19-12Q174.54-13.05 173.86-13.53 173.19-14 171.34-14L171.34-14 169.89-14 169.89-5.85Q169.94-4.9 170.09-4.03 170.24-3.15 170.91-2.58 171.59-2 173.14-2L173.14-2Q173.64-2 173.99-1.9 174.34-1.8 174.39-0.95L174.39-0.95Q174.39-0.55 174.19-0.2 173.99 0.15 173.49 0.15L173.49 0.15Q170.29 0 167.24 0L167.24 0Q165.74 0 164.34 0.03 162.94 0.05 161.34 0.15ZM169.89-25.55L169.89-15.95 174.29-15.95Q176.84-15.95 178.31-16.65 179.79-17.35 180.54-18.45 181.29-19.55 181.51-20.75 181.74-21.95 181.74-22.95L181.74-22.95Q181.74-24.6 181.01-26.15 180.29-27.7 178.46-28.7 176.64-29.7 173.39-29.7L173.39-29.7Q171.24-29.7 170.56-28.88 169.89-28.05 169.89-25.55L169.89-25.55ZM199.73 0.6L199.73 0.6Q196.68 0.6 194.86-1.15 193.03-2.9 193.03-5.35L193.03-5.35Q193.03-7.9 194.36-9.35 195.68-10.8 197.86-11.5 200.03-12.2 202.61-12.45 205.18-12.7 207.63-12.85L207.63-12.85 207.63-16.8Q207.63-19.15 206.46-20.48 205.28-21.8 202.48-21.8L202.48-21.8Q201.08-21.8 199.86-20.9 198.63-20 198.63-18.3L198.63-18.3Q198.63-17.5 199.03-16.95 199.43-16.4 199.83-16.1 200.23-15.8 200.23-15.7L200.23-15.7Q200.23-15.5 199.66-14.98 199.08-14.45 198.08-14.45L198.08-14.45Q196.53-14.45 195.68-15.6 194.83-16.75 194.83-18.15L194.83-18.15Q194.83-20.05 196.01-21.15 197.18-22.25 199.03-22.75 200.88-23.25 202.78-23.25L202.78-23.25Q205.03-23.25 207.16-22.7 209.28-22.15 210.66-20.6 212.03-19.05 212.03-15.95L212.03-15.95 212.03-4.3Q212.08-3.8 212.28-3.1 212.48-2.4 213.06-1.88 213.63-1.35 214.63-1.35L214.63-1.35Q214.98-1.35 215.18-1.23 215.38-1.1 215.38-0.55L215.38-0.55Q215.38-0.1 214.88 0.15 214.38 0.4 213.73 0.5 213.08 0.6 212.63 0.6L212.63 0.6Q210.78 0.6 209.33-0.48 207.88-1.55 207.63-3.45L207.63-3.45Q206.53-1.45 204.36-0.43 202.18 0.6 199.73 0.6ZM201.33-2.1L201.33-2.1Q203.03-2.1 204.46-2.95 205.88-3.8 206.76-5.28 207.63-6.75 207.63-8.55L207.63-8.55 207.63-11.4Q202.48-11.05 200.28-9.75 198.08-8.45 198.08-5.5L198.08-5.5Q198.08-2.1 201.33-2.1ZM218.28 10.25L218.28 10.25Q217.63 10.35 217.28 9.55L217.28 9.55Q217.23 9.15 217.26 8.83 217.28 8.5 217.68 8.35L217.68 8.35Q220.13 7.3 221.23 5.38 222.33 3.45 222.66 0.48 222.98-2.5 222.98-6.55L222.98-6.55 222.98-16.6Q222.98-17.5 222.91-18.28 222.83-19.05 222.33-19.53 221.83-20 220.43-20L220.43-20Q219.98-20 219.61-20.13 219.23-20.25 219.23-21L219.23-21Q219.23-21.75 220.03-21.9L220.03-21.9Q222.33-22.25 223.56-22.6 224.78-22.95 225.43-23.2 226.08-23.45 226.58-23.5L226.58-23.5Q226.98-23.55 227.26-23.35 227.53-23.15 227.53-22.55L227.53-22.55 227.53-4.95Q227.53-1.2 226.71 1.95 225.88 5.1 223.86 7.25 221.83 9.4 218.28 10.25ZM224.88-29.05L224.88-29.05Q223.48-29.05 222.53-29.93 221.58-30.8 221.58-32.1L221.58-32.1Q221.58-33.25 222.73-34.15 223.88-35.05 225.33-35.05L225.33-35.05Q226.58-35.05 227.38-34.18 228.18-33.3 228.18-31.95L228.18-31.95Q228.18-30.75 227.23-29.9 226.28-29.05 224.88-29.05ZM236.23 0.7L236.23 0.7Q235.78 0.7 235.53 0.4 235.28 0.1 235.28-0.3L235.28-0.3 235.28-29.5Q235.28-30.4 235.2-31.18 235.13-31.95 234.63-32.43 234.13-32.9 232.73-32.9L232.73-32.9Q232.28-32.9 231.9-33.02 231.53-33.15 231.53-33.9L231.53-33.9Q231.53-34.65 232.33-34.8L232.33-34.8Q234.63-35.15 235.85-35.5 237.08-35.85 237.73-36.1 238.38-36.35 238.88-36.4L238.88-36.4Q239.28-36.45 239.55-36.25 239.83-36.05 239.83-35.45L239.83-35.45 239.83-20.35 239.98-20.35Q241.48-21.85 243.33-22.55 245.18-23.25 246.88-23.25L246.88-23.25Q249.83-23.25 252.2-21.75 254.58-20.25 255.98-17.63 257.38-15 257.38-11.5L257.38-11.5Q257.38-8.1 255.78-5.35 254.18-2.6 251.58-1 248.98 0.6 245.93 0.6L245.93 0.6Q241.48 0.6 238.23-1.85L238.23-1.85 237.98-1.85Q237.63-1.1 237.3-0.2 236.98 0.7 236.23 0.7ZM245.48-1.1L245.48-1.1Q248.48-1.1 250.38-3.85 252.28-6.6 252.28-11.3L252.28-11.3Q252.28-13.65 251.55-15.8 250.83-17.95 249.25-19.35 247.68-20.75 245.13-20.75L245.13-20.75Q243.43-20.75 242.13-20.15 240.83-19.55 239.83-18.45L239.83-18.45 239.83-5.25Q239.98-4.55 240.65-3.58 241.33-2.6 242.53-1.85 243.73-1.1 245.48-1.1ZM267.83 0.6L267.83 0.6Q264.78 0.6 262.95-1.15 261.13-2.9 261.13-5.35L261.13-5.35Q261.13-7.9 262.45-9.35 263.78-10.8 265.95-11.5 268.13-12.2 270.7-12.45 273.28-12.7 275.73-12.85L275.73-12.85 275.73-16.8Q275.73-19.15 274.55-20.48 273.38-21.8 270.58-21.8L270.58-21.8Q269.18-21.8 267.95-20.9 266.73-20 266.73-18.3L266.73-18.3Q266.73-17.5 267.13-16.95 267.53-16.4 267.93-16.1 268.33-15.8 268.33-15.7L268.33-15.7Q268.33-15.5 267.75-14.98 267.18-14.45 266.18-14.45L266.18-14.45Q264.63-14.45 263.78-15.6 262.93-16.75 262.93-18.15L262.93-18.15Q262.93-20.05 264.1-21.15 265.28-22.25 267.13-22.75 268.98-23.25 270.88-23.25L270.88-23.25Q273.13-23.25 275.25-22.7 277.38-22.15 278.75-20.6 280.13-19.05 280.13-15.95L280.13-15.95 280.13-4.3Q280.18-3.8 280.38-3.1 280.58-2.4 281.15-1.88 281.73-1.35 282.73-1.35L282.73-1.35Q283.08-1.35 283.28-1.23 283.48-1.1 283.48-0.55L283.48-0.55Q283.48-0.1 282.98 0.15 282.48 0.4 281.83 0.5 281.18 0.6 280.73 0.6L280.73 0.6Q278.88 0.6 277.43-0.48 275.98-1.55 275.73-3.45L275.73-3.45Q274.63-1.45 272.45-0.43 270.28 0.6 267.83 0.6ZM269.43-2.1L269.43-2.1Q271.13-2.1 272.55-2.95 273.98-3.8 274.85-5.28 275.73-6.75 275.73-8.55L275.73-8.55 275.73-11.4Q270.58-11.05 268.38-9.75 266.18-8.45 266.18-5.5L266.18-5.5Q266.18-2.1 269.43-2.1ZM286.42 0.15L286.42 0.15Q286.02 0.15 285.82-0.18 285.62-0.5 285.62-0.85L285.62-0.85Q285.67-1.6 286-1.68 286.32-1.75 286.77-1.75L286.77-1.75Q288.17-1.75 288.7-2.23 289.22-2.7 289.3-3.5 289.37-4.3 289.37-5.15L289.37-5.15 289.37-29.55Q289.37-30.45 289.3-31.23 289.22-32 288.72-32.48 288.22-32.95 286.82-32.95L286.82-32.95Q286.37-32.95 286-33.08 285.62-33.2 285.62-33.95L285.62-33.95Q285.62-34.7 286.42-34.85L286.42-34.85Q288.72-35.2 289.95-35.55 291.17-35.9 291.82-36.18 292.47-36.45 292.97-36.45L292.97-36.45Q293.37-36.45 293.65-36.27 293.92-36.1 293.92-35.5L293.92-35.5 293.92-19.4 294.02-19.4Q295.02-20.35 296.07-21.23 297.12-22.1 298.55-22.68 299.97-23.25 302.07-23.25L302.07-23.25Q305.47-23.25 307.47-21.2 309.47-19.15 309.47-15.8L309.47-15.8 309.47-5.15Q309.47-4.3 309.55-3.5 309.62-2.7 310.15-2.23 310.67-1.75 312.02-1.75L312.02-1.75Q312.52-1.75 312.82-1.68 313.12-1.6 313.17-0.85L313.17-0.85Q313.17-0.5 313-0.18 312.82 0.15 312.42 0.15L312.42 0.15Q310.97 0.05 309.72 0.03 308.47 0 307.17 0L307.17 0Q305.82 0 304.62 0.03 303.42 0.05 301.97 0.15L301.97 0.15Q301.57 0.15 301.37-0.18 301.17-0.5 301.17-0.85L301.17-0.85Q301.22-1.6 301.52-1.68 301.82-1.75 302.32-1.75L302.32-1.75Q303.72-1.75 304.25-2.23 304.77-2.7 304.82-3.5 304.87-4.3 304.87-5.15L304.87-5.15 304.87-15.75Q304.87-18.25 303.37-19.38 301.87-20.5 300.12-20.5L300.12-20.5Q298.42-20.5 297.12-19.88 295.82-19.25 295.02-18.45 294.22-17.65 293.92-17.05L293.92-17.05 293.92-5.15Q293.92-4.3 294-3.5 294.07-2.7 294.6-2.23 295.12-1.75 296.47-1.75L296.47-1.75Q296.97-1.75 297.27-1.68 297.57-1.6 297.62-0.85L297.62-0.85Q297.62-0.5 297.45-0.18 297.27 0.15 296.87 0.15L296.87 0.15Q295.42 0.05 294.17 0.03 292.92 0 291.62 0L291.62 0Q290.27 0 289.07 0.03 287.87 0.05 286.42 0.15ZM322.32 0.6L322.32 0.6Q319.27 0.6 317.45-1.15 315.62-2.9 315.62-5.35L315.62-5.35Q315.62-7.9 316.95-9.35 318.27-10.8 320.45-11.5 322.62-12.2 325.2-12.45 327.77-12.7 330.22-12.85L330.22-12.85 330.22-16.8Q330.22-19.15 329.05-20.48 327.87-21.8 325.07-21.8L325.07-21.8Q323.67-21.8 322.45-20.9 321.22-20 321.22-18.3L321.22-18.3Q321.22-17.5 321.62-16.95 322.02-16.4 322.42-16.1 322.82-15.8 322.82-15.7L322.82-15.7Q322.82-15.5 322.25-14.98 321.67-14.45 320.67-14.45L320.67-14.45Q319.12-14.45 318.27-15.6 317.42-16.75 317.42-18.15L317.42-18.15Q317.42-20.05 318.6-21.15 319.77-22.25 321.62-22.75 323.47-23.25 325.37-23.25L325.37-23.25Q327.62-23.25 329.75-22.7 331.87-22.15 333.25-20.6 334.62-19.05 334.62-15.95L334.62-15.95 334.62-4.3Q334.67-3.8 334.87-3.1 335.07-2.4 335.65-1.88 336.22-1.35 337.22-1.35L337.22-1.35Q337.57-1.35 337.77-1.23 337.97-1.1 337.97-0.55L337.97-0.55Q337.97-0.1 337.47 0.15 336.97 0.4 336.32 0.5 335.67 0.6 335.22 0.6L335.22 0.6Q333.37 0.6 331.92-0.48 330.47-1.55 330.22-3.45L330.22-3.45Q329.12-1.45 326.95-0.43 324.77 0.6 322.32 0.6ZM323.92-2.1L323.92-2.1Q325.62-2.1 327.05-2.95 328.47-3.8 329.35-5.28 330.22-6.75 330.22-8.55L330.22-8.55 330.22-11.4Q325.07-11.05 322.87-9.75 320.67-8.45 320.67-5.5L320.67-5.5Q320.67-2.1 323.92-2.1ZM340.92 0.15L340.92 0.15Q340.52 0.15 340.32-0.18 340.12-0.5 340.12-0.85L340.12-0.85Q340.17-1.6 340.49-1.68 340.82-1.75 341.27-1.75L341.27-1.75Q342.67-1.75 343.19-2.23 343.72-2.7 343.79-3.5 343.87-4.3 343.87-5.15L343.87-5.15 343.87-29.5Q343.87-30.4 343.79-31.18 343.72-31.95 343.22-32.43 342.72-32.9 341.32-32.9L341.32-32.9Q340.87-32.9 340.49-33.02 340.12-33.15 340.12-33.9L340.12-33.9Q340.12-34.65 340.92-34.8L340.92-34.8Q343.22-35.15 344.44-35.5 345.67-35.85 346.32-36.1 346.97-36.35 347.47-36.4L347.47-36.4Q347.87-36.45 348.14-36.25 348.42-36.05 348.42-35.45L348.42-35.45 348.42-12.6Q350.62-13.05 352.02-14.45L352.02-14.45 356.22-18.75Q356.52-19.1 356.89-19.5 357.27-19.9 357.34-20.25 357.42-20.6 356.92-20.8 356.42-21 355.02-20.9L355.02-20.9Q354.47-21 354.42-21.8L354.42-21.8Q354.42-22.2 354.64-22.5 354.87-22.8 355.22-22.8L355.22-22.8Q356.37-22.75 357.99-22.7 359.62-22.65 360.72-22.65L360.72-22.65Q361.57-22.65 362.39-22.7 363.22-22.75 364.07-22.8L364.07-22.8Q364.47-22.8 364.67-22.5 364.87-22.2 364.87-21.8L364.87-21.8Q364.82-21.15 364.59-21.03 364.37-20.9 364.02-20.9L364.02-20.9Q362.07-20.9 360.87-20.2 359.67-19.5 358.17-17.95L358.17-17.95 353.97-13.65Q354.57-12.85 355.57-11.7 356.57-10.55 357.69-9.28 358.82-8 359.82-6.88 360.82-5.75 361.42-5.05L361.42-5.05Q362.87-3.5 363.84-2.68 364.82-1.85 366.27-1.75L366.27-1.75Q366.67-1.7 367.02-1.63 367.37-1.55 367.37-0.85L367.37-0.85Q367.37-0.5 367.19-0.18 367.02 0.15 366.57 0.15L366.57 0.15Q365.87 0.1 365.42 0.08 364.97 0.05 364.42 0.03 363.87 0 362.84 0 361.82 0 359.92 0L359.92 0Q358.17-1.9 355.89-4.55 353.62-7.2 351.37-9.8L351.37-9.8Q350.87-10.35 350.09-10.83 349.32-11.3 348.42-11.2L348.42-11.2 348.42-5.15Q348.42-4.3 348.49-3.5 348.57-2.7 349.09-2.23 349.62-1.75 350.97-1.75L350.97-1.75Q351.47-1.75 351.79-1.68 352.12-1.6 352.17-0.85L352.17-0.85Q352.17-0.5 351.97-0.18 351.77 0.15 351.37 0.15L351.37 0.15Q349.92 0.05 348.67 0.03 347.42 0 346.12 0L346.12 0Q344.77 0 343.57 0.03 342.37 0.05 340.92 0.15Z" opacity="1" transform="matrix(1,0,0,1,0,0)" fill="black" class="wordmark-text-0" id="SvgjsPath8761" stroke-width="5" stroke="black" stroke-linejoin="round"></path></svg></g></svg></g></svg></g></svg></g><g></g></svg></g></svg></g></svg></g></mask><g mask="url(#e0534e01-b617-4eec-a63a-345615f4173a)"><g><path d="M5.992 217.134v0c-1.762 0-3.035-0.685-3.817-2.055-0.783-1.37-1.175-2.839-1.175-4.405v0c0.196-3.328 0.979-5.188 2.349-5.58 1.37-0.392 3.035-0.587 4.993-0.587v0c6.265 0 10.67-1.136 13.215-3.407 2.545-2.232 4.17-5.071 4.875-8.517 0.666-3.407 0.998-6.97 0.998-10.689v0-116.588c0-3.72-0.333-7.303-0.998-10.748-0.705-3.407-2.33-6.245-4.875-8.517-2.545-2.232-6.95-3.348-13.215-3.348v0c-1.958 0-3.622-0.196-4.993-0.587-1.37-0.392-2.154-2.251-2.349-5.58v0c0-1.566 0.392-3.035 1.175-4.405 0.783-1.37 2.056-2.056 3.817-2.055v0c6.461 0.196 12.432 0.392 17.914 0.587 5.482 0.196 11.16 0.294 17.033 0.294v0h45.813c18.795 0 35.828 3.72 51.099 11.159 15.271 7.44 27.409 18.11 36.415 32.01 9.006 13.9 13.509 30.738 13.509 50.512v0c0 15.662-3.035 29.269-9.104 40.82-6.069 11.551-14.194 21.086-24.374 28.604-10.181 7.557-21.575 13.137-34.184 16.739-12.647 3.642-25.53 5.462-38.647 5.462v0h-40.527c-5.873 0-11.551 0.059-17.033 0.177-5.482 0.078-11.453 0.313-17.914 0.704zM85.871 205.388v0c15.858 0 28.682-3.387 38.471-10.161 9.789-6.735 16.896-16.172 21.321-28.31 4.386-12.138 6.578-26.235 6.578-42.289v0c0-16.054-2.839-30.346-8.517-42.876-5.678-12.53-13.94-22.378-24.785-29.544-10.885-7.126-24.061-10.69-39.529-10.689v0c-3.132 0-7.244 0.039-12.334 0.117-5.09 0.117-8.614 0.176-10.572 0.176v0 143.606c0 7.831 2.408 13.117 7.224 15.858 4.777 2.741 12.158 4.111 22.143 4.112zM215.674 217.134v0c-1.958 0-3.328-0.685-4.111-2.055-0.783-1.37-1.175-2.839-1.175-4.405v0c0.196-3.328 0.979-5.188 2.349-5.58 1.37-0.392 3.035-0.587 4.993-0.587v0c6.265 0 10.67-1.136 13.215-3.407 2.545-2.232 4.17-5.071 4.875-8.517 0.666-3.407 0.998-6.97 0.998-10.689v0-116.294c0-3.72-0.333-7.342-0.998-10.866-0.705-3.524-2.33-6.422-4.875-8.693-2.545-2.232-6.95-3.348-13.215-3.348v0c-1.958 0-3.622-0.196-4.993-0.587-1.37-0.392-2.154-2.251-2.349-5.58v0c0-1.566 0.392-3.035 1.175-4.405 0.783-1.37 2.154-2.056 4.111-2.055v0c6.265 0.196 12.197 0.392 17.796 0.587 5.56 0.196 11.277 0.294 17.151 0.294v0h50.511c15.858 0.196 28.741 2.643 38.648 7.341 9.867 4.699 17.053 10.67 21.555 17.914 4.503 7.244 6.754 14.781 6.755 22.613v0c0 10.376-4.17 20.165-12.511 29.367-8.301 9.202-19.989 15.76-35.064 19.676v0c7.44 11.747 14.977 23.533 22.612 35.358 7.635 11.864 16.446 22.985 26.431 33.361v0c2.741 2.154 5.443 3.916 8.105 5.287 2.623 1.37 5.795 2.251 9.515 2.643v0c1.566 0.196 3.132 0.431 4.699 0.704 1.566 0.313 2.447 2.134 2.643 5.463v0c0 1.566-0.392 3.035-1.175 4.405-0.783 1.37-2.154 2.056-4.111 2.055v0c-4.111-0.196-7.381-0.333-9.809-0.411-2.467-0.117-4.875-0.215-7.224-0.293-2.349-0.117-5.482-0.176-9.398-0.177v0c-8.027-1.566-14.84-4.405-20.439-8.516-5.56-4.111-10.983-9.789-16.269-17.033v0c-5.482-7.44-10.572-14.977-15.271-22.613-4.699-7.635-9.3-15.075-13.803-22.319v0c-2.545-4.111-5.129-7.107-7.753-8.986-2.663-1.84-7.616-2.761-14.86-2.761v0h-8.516v47.869c0.196 3.72 0.587 7.283 1.175 10.689 0.587 3.446 2.193 6.285 4.816 8.517 2.663 2.271 7.029 3.407 13.097 3.407v0c1.958 0 3.622 0.196 4.993 0.587 1.37 0.392 2.154 2.251 2.349 5.58v0c0 1.566-0.392 3.035-1.174 4.405-0.783 1.37-2.154 2.056-4.112 2.055v0c-12.53-0.587-24.766-0.881-36.709-0.881v0c-5.873 0-11.551 0.059-17.033 0.177-5.482 0.078-11.355 0.313-17.62 0.704zM265.892 66.187v56.385h25.843c9.985 0 17.855-1.37 23.611-4.111 5.795-2.741 10.161-6.265 13.098-10.572 2.937-4.307 4.855-8.81 5.756-13.509 0.861-4.699 1.292-9.006 1.292-12.922v0c0-6.461-1.41-12.726-4.229-18.795-2.858-6.069-7.851-11.062-14.977-14.977-7.166-3.916-17.111-5.873-29.837-5.874v0c-8.419 0-13.959 1.605-16.622 4.817-2.623 3.25-3.935 9.769-3.935 19.558z" fill="#000000" fill-rule="nonzero" stroke="none" stroke-width="1" stroke-linecap="butt" stroke-linejoin="miter" stroke-miterlimit="10" stroke-dasharray="" stroke-dashoffset="0" font-family="none" font-weight="none" font-size="none" text-anchor="none" style="mix-blend-mode: normal" data-fill-palette-color="tertiary"></path></g></g><g transform="matrix(1,0,0,1,0,95.63852532072923)"><svg viewBox="0 0 395.52 55.92294935854152" height="55.92294935854152" width="395.52"><g><svg viewBox="0 0 395.52 55.92294935854152" height="55.92294935854152" width="395.52"><g><svg viewBox="0 0 395.52 55.92294935854152" height="55.92294935854152" width="395.52"><g><svg viewBox="0 0 395.52 55.92294935854152" height="55.92294935854152" width="395.52"><g id="textblocktransform"><svg viewBox="0 0 395.52 55.92294935854152" height="55.92294935854152" width="395.52" id="textblock"><g><svg viewBox="0 0 395.52 55.92294935854152" height="55.92294935854152" width="395.52"><g transform="matrix(1,0,0,1,0,0)"><svg width="395.52" viewBox="-0.8500000000000001 -39.45 371.22 53.35" height="55.92294935854152" data-palette-color="#ffffff"><path d="M3 0.15L3 0.15Q2.55 0.15 2.35-0.2 2.15-0.55 2.15-0.95L2.15-0.95Q2.2-1.8 2.55-1.9 2.9-2 3.4-2L3.4-2Q5-2 5.65-2.58 6.3-3.15 6.48-4.03 6.65-4.9 6.65-5.85L6.65-5.85 6.65-25.7Q6.65-26.65 6.48-27.53 6.3-28.4 5.65-28.98 5-29.55 3.4-29.55L3.4-29.55Q2.9-29.55 2.55-29.65 2.2-29.75 2.15-30.6L2.15-30.6Q2.15-31 2.35-31.35 2.55-31.7 3-31.7L3-31.7Q4.65-31.65 6.05-31.6 7.45-31.55 8.95-31.55L8.95-31.55 16.75-31.55Q21.55-31.55 25.45-29.65 29.35-27.75 31.65-24.2 33.95-20.65 33.95-15.6L33.95-15.6Q33.95-11.6 32.4-8.65 30.85-5.7 28.25-3.78 25.65-1.85 22.43-0.93 19.2 0 15.85 0L15.85 0 8.95 0Q7.45 0 6.05 0.03 4.65 0.05 3 0.15ZM16.6-1.85L16.6-1.85Q20.65-1.85 23.15-3.58 25.65-5.3 26.78-8.4 27.9-11.5 27.9-15.6L27.9-15.6Q27.9-19.7 26.45-22.9 25-26.1 22.23-27.93 19.45-29.75 15.5-29.75L15.5-29.75Q14.7-29.75 13.4-29.73 12.1-29.7 11.6-29.7L11.6-29.7 11.6-5.25Q11.6-3.25 12.83-2.55 14.05-1.85 16.6-1.85ZM44.4 0.6L44.4 0.6Q41.35 0.6 39.52-1.15 37.7-2.9 37.7-5.35L37.7-5.35Q37.7-7.9 39.02-9.35 40.35-10.8 42.52-11.5 44.7-12.2 47.27-12.45 49.85-12.7 52.3-12.85L52.3-12.85 52.3-16.8Q52.3-19.15 51.12-20.48 49.95-21.8 47.15-21.8L47.15-21.8Q45.75-21.8 44.52-20.9 43.3-20 43.3-18.3L43.3-18.3Q43.3-17.5 43.7-16.95 44.1-16.4 44.5-16.1 44.9-15.8 44.9-15.7L44.9-15.7Q44.9-15.5 44.32-14.98 43.75-14.45 42.75-14.45L42.75-14.45Q41.2-14.45 40.35-15.6 39.5-16.75 39.5-18.15L39.5-18.15Q39.5-20.05 40.67-21.15 41.85-22.25 43.7-22.75 45.55-23.25 47.45-23.25L47.45-23.25Q49.7-23.25 51.82-22.7 53.95-22.15 55.32-20.6 56.7-19.05 56.7-15.95L56.7-15.95 56.7-4.3Q56.75-3.8 56.95-3.1 57.15-2.4 57.72-1.88 58.3-1.35 59.3-1.35L59.3-1.35Q59.65-1.35 59.85-1.23 60.05-1.1 60.05-0.55L60.05-0.55Q60.05-0.1 59.55 0.15 59.05 0.4 58.4 0.5 57.75 0.6 57.3 0.6L57.3 0.6Q55.45 0.6 54-0.48 52.55-1.55 52.3-3.45L52.3-3.45Q51.2-1.45 49.02-0.43 46.85 0.6 44.4 0.6ZM46-2.1L46-2.1Q47.7-2.1 49.12-2.95 50.55-3.8 51.42-5.28 52.3-6.75 52.3-8.55L52.3-8.55 52.3-11.4Q47.15-11.05 44.95-9.75 42.75-8.45 42.75-5.5L42.75-5.5Q42.75-2.1 46-2.1ZM63.25 0.15L63.25 0.15Q62.9 0.15 62.67-0.18 62.45-0.5 62.45-0.85L62.45-0.85Q62.55-1.6 62.84-1.68 63.15-1.75 63.65-1.75L63.65-1.75Q65.05-1.75 65.55-2.23 66.05-2.7 66.12-3.5 66.2-4.3 66.2-5.15L66.2-5.15 66.2-16.6Q66.2-17.5 66.12-18.28 66.05-19.05 65.55-19.53 65.05-20 63.65-20L63.65-20Q63.2-20 62.82-20.13 62.45-20.25 62.45-21L62.45-21Q62.45-21.75 63.25-21.9L63.25-21.9Q65.55-22.25 66.77-22.6 68-22.95 68.62-23.2 69.25-23.45 69.75-23.5L69.75-23.5Q70.14-23.55 70.42-23.35 70.7-23.15 70.7-22.55L70.7-22.55 70.7-19.4 70.84-19.4Q71.84-20.35 72.9-21.23 73.95-22.1 75.37-22.68 76.8-23.25 78.9-23.25L78.9-23.25Q82.3-23.25 84.3-21.2 86.3-19.15 86.3-15.8L86.3-15.8 86.3-5.15Q86.3-4.3 86.37-3.5 86.45-2.7 86.97-2.23 87.5-1.75 88.9-1.75L88.9-1.75Q89.34-1.75 89.67-1.68 90-1.6 90.05-0.85L90.05-0.85Q90.05-0.5 89.84-0.18 89.65 0.15 89.25 0.15L89.25 0.15Q87.8 0.05 86.57 0.03 85.34 0 84 0L84 0Q82.65 0 81.45 0.03 80.25 0.05 78.8 0.15L78.8 0.15Q78.45 0.15 78.22-0.18 78-0.5 78-0.85L78-0.85Q78.05-1.6 78.37-1.68 78.7-1.75 79.15-1.75L79.15-1.75Q80.55-1.75 81.07-2.23 81.59-2.7 81.67-3.5 81.75-4.3 81.75-5.15L81.75-5.15 81.75-15.75Q81.75-17.4 81.02-18.45 80.3-19.5 79.2-20 78.09-20.5 76.95-20.5L76.95-20.5Q75.25-20.5 73.95-19.88 72.65-19.25 71.84-18.45 71.05-17.65 70.75-17.05L70.75-17.05 70.75-5.15Q70.75-4.3 70.82-3.5 70.9-2.7 71.42-2.23 71.95-1.75 73.34-1.75L73.34-1.75Q73.8-1.75 74.12-1.68 74.45-1.6 74.5-0.85L74.5-0.85Q74.5-0.5 74.3-0.18 74.09 0.15 73.7 0.15L73.7 0.15Q72.25 0.05 71.02 0.03 69.8 0 68.45 0L68.45 0Q67.09 0 65.89 0.03 64.7 0.05 63.25 0.15ZM94.54 10.9L94.54 10.9Q93.09 10.9 91.82 10.25 90.54 9.6 89.79 8.53 89.04 7.45 89.04 6.2L89.04 6.2Q89.09 4.85 89.62 4.13 90.14 3.4 90.79 3.13 91.44 2.85 91.89 2.8 92.34 2.75 92.24 2.75L92.24 2.75Q93.19 2.75 93.69 3.13 94.19 3.5 94.19 3.75L94.19 3.75Q94.19 3.85 93.82 4.23 93.44 4.6 93.39 5.55L93.39 5.55Q93.34 6.45 93.94 7.3 94.54 8.15 95.79 8.15L95.79 8.15Q97.19 8.15 98.34 7.13 99.49 6.1 100.39 4.6 101.29 3.1 101.94 1.7L101.94 1.7Q102.29 0.6 101.89-0.6L101.89-0.6Q100.69-3.3 99.54-6.35 98.39-9.4 97.32-12.25 96.24-15.1 95.19-17.25L95.19-17.25Q94.39-19.1 93.64-19.88 92.89-20.65 91.39-20.85L91.39-20.85Q90.74-20.95 90.52-21.05 90.29-21.15 90.24-21.8L90.24-21.8Q90.19-22.65 90.72-22.73 91.24-22.8 91.99-22.85L91.99-22.85Q95.09-23 96.84-21.95 98.59-20.9 99.69-18.4L99.69-18.4Q100.39-16.85 101.24-14.55 102.09-12.25 103.04-9.9 103.99-7.55 104.89-5.65L104.89-5.65 105.04-5.65 109.94-18.75Q110.44-20.2 109.99-20.55 109.54-20.9 108.04-20.9L108.04-20.9Q107.59-20.9 107.29-20.98 106.99-21.05 106.94-21.8L106.94-21.8Q106.94-22.1 107.12-22.45 107.29-22.8 107.64-22.8L107.64-22.8Q109.09-22.75 110.14-22.7 111.19-22.65 112.49-22.65L112.49-22.65Q113.39-22.65 113.94-22.68 114.49-22.7 115.09-22.73 115.69-22.75 116.64-22.8L116.64-22.8Q117.04-22.8 117.22-22.45 117.39-22.1 117.39-21.8L117.39-21.8Q117.34-21.05 117.02-20.98 116.69-20.9 116.29-20.9L116.29-20.9Q114.64-20.9 113.67-20.3 112.69-19.7 111.99-17.95L111.99-17.95Q111.99-17.95 111.47-16.65 110.94-15.35 110.09-13.25 109.24-11.15 108.29-8.83 107.34-6.5 106.49-4.4 105.64-2.3 105.09-0.95 104.54 0.4 104.49 0.5L104.49 0.5Q103.84 2.05 102.92 3.88 101.99 5.7 100.77 7.28 99.54 8.85 97.99 9.88 96.44 10.9 94.54 10.9ZM129.34 0.6L129.34 0.6Q125.94 0.6 123.94-1.45 121.94-3.5 121.94-6.85L121.94-6.85 121.94-16.1Q121.94-17 121.87-17.78 121.79-18.55 121.29-19.03 120.79-19.5 119.39-19.5L119.39-19.5Q118.94-19.5 118.56-19.63 118.19-19.75 118.19-20.5L118.19-20.5Q118.19-21.25 118.99-21.4L118.99-21.4Q121.29-21.75 122.52-22.1 123.74-22.45 124.39-22.7 125.04-22.95 125.54-23L125.54-23Q125.94-23.05 126.22-22.85 126.49-22.65 126.49-22.05L126.49-22.05 126.49-6.9Q126.49-5.25 127.22-4.2 127.94-3.15 129.04-2.65 130.14-2.15 131.29-2.15L131.29-2.15Q133.04-2.15 134.34-2.78 135.64-3.4 136.44-4.23 137.24-5.05 137.49-5.6L137.49-5.6 137.49-16.1Q137.49-17 137.42-17.78 137.34-18.55 136.84-19.03 136.34-19.5 134.94-19.5L134.94-19.5Q134.49-19.5 134.12-19.63 133.74-19.75 133.74-20.5L133.74-20.5Q133.74-21.25 134.54-21.4L134.54-21.4Q136.84-21.75 138.06-22.1 139.29-22.45 139.94-22.7 140.59-22.95 141.09-23L141.09-23Q141.49-23.05 141.77-22.85 142.04-22.65 142.04-22.05L142.04-22.05 142.04-4.75Q142.04-1.8 145.99-1.8L145.99-1.8Q146.54-1.8 146.69-1.5 146.84-1.2 146.84-0.85L146.84-0.85Q146.84-0.15 145.99 0L145.99 0 137.94 0.55Q137.59 0.55 137.54 0.25 137.49-0.05 137.49-0.45L137.49-0.45 137.49-3.25 137.39-3.25Q136.44-2.35 135.37-1.45 134.29-0.55 132.87 0.03 131.44 0.6 129.34 0.6ZM161.34 0.15L161.34 0.15Q160.84 0.15 160.64-0.2 160.44-0.55 160.44-0.95L160.44-0.95Q160.49-1.8 160.84-1.9 161.19-2 161.69-2L161.69-2Q163.29-2 163.94-2.58 164.59-3.15 164.76-4.03 164.94-4.9 164.94-5.85L164.94-5.85 164.94-25.65Q164.94-26.6 164.76-27.5 164.59-28.4 163.94-28.98 163.29-29.55 161.69-29.55L161.69-29.55Q161.19-29.55 160.84-29.65 160.49-29.75 160.44-30.6L160.44-30.6Q160.44-31 160.64-31.35 160.84-31.7 161.34-31.7L161.34-31.7Q162.94-31.65 164.36-31.6 165.79-31.55 167.29-31.55L167.29-31.55 175.89-31.55Q179.94-31.5 182.46-30.3 184.99-29.1 186.14-27.25 187.29-25.4 187.29-23.4L187.29-23.4Q187.29-20.75 185.16-18.4 183.04-16.05 179.19-15.05L179.19-15.05Q181.09-12.05 183.04-9.03 184.99-6 187.54-3.35L187.54-3.35Q188.24-2.8 188.91-2.45 189.59-2.1 190.54-2L190.54-2Q190.94-1.95 191.34-1.88 191.74-1.8 191.79-0.95L191.79-0.95Q191.79-0.55 191.59-0.2 191.39 0.15 190.89 0.15L190.89 0.15Q189.84 0.1 189.21 0.08 188.59 0.05 187.99 0.03 187.39 0 186.39 0L186.39 0Q184.34-0.4 182.91-1.45 181.49-2.5 180.14-4.35L180.14-4.35Q178.74-6.25 177.54-8.2 176.34-10.15 175.19-12L175.19-12Q174.54-13.05 173.86-13.53 173.19-14 171.34-14L171.34-14 169.89-14 169.89-5.85Q169.94-4.9 170.09-4.03 170.24-3.15 170.91-2.58 171.59-2 173.14-2L173.14-2Q173.64-2 173.99-1.9 174.34-1.8 174.39-0.95L174.39-0.95Q174.39-0.55 174.19-0.2 173.99 0.15 173.49 0.15L173.49 0.15Q170.29 0 167.24 0L167.24 0Q165.74 0 164.34 0.03 162.94 0.05 161.34 0.15ZM169.89-25.55L169.89-15.95 174.29-15.95Q176.84-15.95 178.31-16.65 179.79-17.35 180.54-18.45 181.29-19.55 181.51-20.75 181.74-21.95 181.74-22.95L181.74-22.95Q181.74-24.6 181.01-26.15 180.29-27.7 178.46-28.7 176.64-29.7 173.39-29.7L173.39-29.7Q171.24-29.7 170.56-28.88 169.89-28.05 169.89-25.55L169.89-25.55ZM199.73 0.6L199.73 0.6Q196.68 0.6 194.86-1.15 193.03-2.9 193.03-5.35L193.03-5.35Q193.03-7.9 194.36-9.35 195.68-10.8 197.86-11.5 200.03-12.2 202.61-12.45 205.18-12.7 207.63-12.85L207.63-12.85 207.63-16.8Q207.63-19.15 206.46-20.48 205.28-21.8 202.48-21.8L202.48-21.8Q201.08-21.8 199.86-20.9 198.63-20 198.63-18.3L198.63-18.3Q198.63-17.5 199.03-16.95 199.43-16.4 199.83-16.1 200.23-15.8 200.23-15.7L200.23-15.7Q200.23-15.5 199.66-14.98 199.08-14.45 198.08-14.45L198.08-14.45Q196.53-14.45 195.68-15.6 194.83-16.75 194.83-18.15L194.83-18.15Q194.83-20.05 196.01-21.15 197.18-22.25 199.03-22.75 200.88-23.25 202.78-23.25L202.78-23.25Q205.03-23.25 207.16-22.7 209.28-22.15 210.66-20.6 212.03-19.05 212.03-15.95L212.03-15.95 212.03-4.3Q212.08-3.8 212.28-3.1 212.48-2.4 213.06-1.88 213.63-1.35 214.63-1.35L214.63-1.35Q214.98-1.35 215.18-1.23 215.38-1.1 215.38-0.55L215.38-0.55Q215.38-0.1 214.88 0.15 214.38 0.4 213.73 0.5 213.08 0.6 212.63 0.6L212.63 0.6Q210.78 0.6 209.33-0.48 207.88-1.55 207.63-3.45L207.63-3.45Q206.53-1.45 204.36-0.43 202.18 0.6 199.73 0.6ZM201.33-2.1L201.33-2.1Q203.03-2.1 204.46-2.95 205.88-3.8 206.76-5.28 207.63-6.75 207.63-8.55L207.63-8.55 207.63-11.4Q202.48-11.05 200.28-9.75 198.08-8.45 198.08-5.5L198.08-5.5Q198.08-2.1 201.33-2.1ZM218.28 10.25L218.28 10.25Q217.63 10.35 217.28 9.55L217.28 9.55Q217.23 9.15 217.26 8.83 217.28 8.5 217.68 8.35L217.68 8.35Q220.13 7.3 221.23 5.38 222.33 3.45 222.66 0.48 222.98-2.5 222.98-6.55L222.98-6.55 222.98-16.6Q222.98-17.5 222.91-18.28 222.83-19.05 222.33-19.53 221.83-20 220.43-20L220.43-20Q219.98-20 219.61-20.13 219.23-20.25 219.23-21L219.23-21Q219.23-21.75 220.03-21.9L220.03-21.9Q222.33-22.25 223.56-22.6 224.78-22.95 225.43-23.2 226.08-23.45 226.58-23.5L226.58-23.5Q226.98-23.55 227.26-23.35 227.53-23.15 227.53-22.55L227.53-22.55 227.53-4.95Q227.53-1.2 226.71 1.95 225.88 5.1 223.86 7.25 221.83 9.4 218.28 10.25ZM224.88-29.05L224.88-29.05Q223.48-29.05 222.53-29.93 221.58-30.8 221.58-32.1L221.58-32.1Q221.58-33.25 222.73-34.15 223.88-35.05 225.33-35.05L225.33-35.05Q226.58-35.05 227.38-34.18 228.18-33.3 228.18-31.95L228.18-31.95Q228.18-30.75 227.23-29.9 226.28-29.05 224.88-29.05ZM236.23 0.7L236.23 0.7Q235.78 0.7 235.53 0.4 235.28 0.1 235.28-0.3L235.28-0.3 235.28-29.5Q235.28-30.4 235.2-31.18 235.13-31.95 234.63-32.43 234.13-32.9 232.73-32.9L232.73-32.9Q232.28-32.9 231.9-33.02 231.53-33.15 231.53-33.9L231.53-33.9Q231.53-34.65 232.33-34.8L232.33-34.8Q234.63-35.15 235.85-35.5 237.08-35.85 237.73-36.1 238.38-36.35 238.88-36.4L238.88-36.4Q239.28-36.45 239.55-36.25 239.83-36.05 239.83-35.45L239.83-35.45 239.83-20.35 239.98-20.35Q241.48-21.85 243.33-22.55 245.18-23.25 246.88-23.25L246.88-23.25Q249.83-23.25 252.2-21.75 254.58-20.25 255.98-17.63 257.38-15 257.38-11.5L257.38-11.5Q257.38-8.1 255.78-5.35 254.18-2.6 251.58-1 248.98 0.6 245.93 0.6L245.93 0.6Q241.48 0.6 238.23-1.85L238.23-1.85 237.98-1.85Q237.63-1.1 237.3-0.2 236.98 0.7 236.23 0.7ZM245.48-1.1L245.48-1.1Q248.48-1.1 250.38-3.85 252.28-6.6 252.28-11.3L252.28-11.3Q252.28-13.65 251.55-15.8 250.83-17.95 249.25-19.35 247.68-20.75 245.13-20.75L245.13-20.75Q243.43-20.75 242.13-20.15 240.83-19.55 239.83-18.45L239.83-18.45 239.83-5.25Q239.98-4.55 240.65-3.58 241.33-2.6 242.53-1.85 243.73-1.1 245.48-1.1ZM267.83 0.6L267.83 0.6Q264.78 0.6 262.95-1.15 261.13-2.9 261.13-5.35L261.13-5.35Q261.13-7.9 262.45-9.35 263.78-10.8 265.95-11.5 268.13-12.2 270.7-12.45 273.28-12.7 275.73-12.85L275.73-12.85 275.73-16.8Q275.73-19.15 274.55-20.48 273.38-21.8 270.58-21.8L270.58-21.8Q269.18-21.8 267.95-20.9 266.73-20 266.73-18.3L266.73-18.3Q266.73-17.5 267.13-16.95 267.53-16.4 267.93-16.1 268.33-15.8 268.33-15.7L268.33-15.7Q268.33-15.5 267.75-14.98 267.18-14.45 266.18-14.45L266.18-14.45Q264.63-14.45 263.78-15.6 262.93-16.75 262.93-18.15L262.93-18.15Q262.93-20.05 264.1-21.15 265.28-22.25 267.13-22.75 268.98-23.25 270.88-23.25L270.88-23.25Q273.13-23.25 275.25-22.7 277.38-22.15 278.75-20.6 280.13-19.05 280.13-15.95L280.13-15.95 280.13-4.3Q280.18-3.8 280.38-3.1 280.58-2.4 281.15-1.88 281.73-1.35 282.73-1.35L282.73-1.35Q283.08-1.35 283.28-1.23 283.48-1.1 283.48-0.55L283.48-0.55Q283.48-0.1 282.98 0.15 282.48 0.4 281.83 0.5 281.18 0.6 280.73 0.6L280.73 0.6Q278.88 0.6 277.43-0.48 275.98-1.55 275.73-3.45L275.73-3.45Q274.63-1.45 272.45-0.43 270.28 0.6 267.83 0.6ZM269.43-2.1L269.43-2.1Q271.13-2.1 272.55-2.95 273.98-3.8 274.85-5.28 275.73-6.75 275.73-8.55L275.73-8.55 275.73-11.4Q270.58-11.05 268.38-9.75 266.18-8.45 266.18-5.5L266.18-5.5Q266.18-2.1 269.43-2.1ZM286.42 0.15L286.42 0.15Q286.02 0.15 285.82-0.18 285.62-0.5 285.62-0.85L285.62-0.85Q285.67-1.6 286-1.68 286.32-1.75 286.77-1.75L286.77-1.75Q288.17-1.75 288.7-2.23 289.22-2.7 289.3-3.5 289.37-4.3 289.37-5.15L289.37-5.15 289.37-29.55Q289.37-30.45 289.3-31.23 289.22-32 288.72-32.48 288.22-32.95 286.82-32.95L286.82-32.95Q286.37-32.95 286-33.08 285.62-33.2 285.62-33.95L285.62-33.95Q285.62-34.7 286.42-34.85L286.42-34.85Q288.72-35.2 289.95-35.55 291.17-35.9 291.82-36.18 292.47-36.45 292.97-36.45L292.97-36.45Q293.37-36.45 293.65-36.27 293.92-36.1 293.92-35.5L293.92-35.5 293.92-19.4 294.02-19.4Q295.02-20.35 296.07-21.23 297.12-22.1 298.55-22.68 299.97-23.25 302.07-23.25L302.07-23.25Q305.47-23.25 307.47-21.2 309.47-19.15 309.47-15.8L309.47-15.8 309.47-5.15Q309.47-4.3 309.55-3.5 309.62-2.7 310.15-2.23 310.67-1.75 312.02-1.75L312.02-1.75Q312.52-1.75 312.82-1.68 313.12-1.6 313.17-0.85L313.17-0.85Q313.17-0.5 313-0.18 312.82 0.15 312.42 0.15L312.42 0.15Q310.97 0.05 309.72 0.03 308.47 0 307.17 0L307.17 0Q305.82 0 304.62 0.03 303.42 0.05 301.97 0.15L301.97 0.15Q301.57 0.15 301.37-0.18 301.17-0.5 301.17-0.85L301.17-0.85Q301.22-1.6 301.52-1.68 301.82-1.75 302.32-1.75L302.32-1.75Q303.72-1.75 304.25-2.23 304.77-2.7 304.82-3.5 304.87-4.3 304.87-5.15L304.87-5.15 304.87-15.75Q304.87-18.25 303.37-19.38 301.87-20.5 300.12-20.5L300.12-20.5Q298.42-20.5 297.12-19.88 295.82-19.25 295.02-18.45 294.22-17.65 293.92-17.05L293.92-17.05 293.92-5.15Q293.92-4.3 294-3.5 294.07-2.7 294.6-2.23 295.12-1.75 296.47-1.75L296.47-1.75Q296.97-1.75 297.27-1.68 297.57-1.6 297.62-0.85L297.62-0.85Q297.62-0.5 297.45-0.18 297.27 0.15 296.87 0.15L296.87 0.15Q295.42 0.05 294.17 0.03 292.92 0 291.62 0L291.62 0Q290.27 0 289.07 0.03 287.87 0.05 286.42 0.15ZM322.32 0.6L322.32 0.6Q319.27 0.6 317.45-1.15 315.62-2.9 315.62-5.35L315.62-5.35Q315.62-7.9 316.95-9.35 318.27-10.8 320.45-11.5 322.62-12.2 325.2-12.45 327.77-12.7 330.22-12.85L330.22-12.85 330.22-16.8Q330.22-19.15 329.05-20.48 327.87-21.8 325.07-21.8L325.07-21.8Q323.67-21.8 322.45-20.9 321.22-20 321.22-18.3L321.22-18.3Q321.22-17.5 321.62-16.95 322.02-16.4 322.42-16.1 322.82-15.8 322.82-15.7L322.82-15.7Q322.82-15.5 322.25-14.98 321.67-14.45 320.67-14.45L320.67-14.45Q319.12-14.45 318.27-15.6 317.42-16.75 317.42-18.15L317.42-18.15Q317.42-20.05 318.6-21.15 319.77-22.25 321.62-22.75 323.47-23.25 325.37-23.25L325.37-23.25Q327.62-23.25 329.75-22.7 331.87-22.15 333.25-20.6 334.62-19.05 334.62-15.95L334.62-15.95 334.62-4.3Q334.67-3.8 334.87-3.1 335.07-2.4 335.65-1.88 336.22-1.35 337.22-1.35L337.22-1.35Q337.57-1.35 337.77-1.23 337.97-1.1 337.97-0.55L337.97-0.55Q337.97-0.1 337.47 0.15 336.97 0.4 336.32 0.5 335.67 0.6 335.22 0.6L335.22 0.6Q333.37 0.6 331.92-0.48 330.47-1.55 330.22-3.45L330.22-3.45Q329.12-1.45 326.95-0.43 324.77 0.6 322.32 0.6ZM323.92-2.1L323.92-2.1Q325.62-2.1 327.05-2.95 328.47-3.8 329.35-5.28 330.22-6.75 330.22-8.55L330.22-8.55 330.22-11.4Q325.07-11.05 322.87-9.75 320.67-8.45 320.67-5.5L320.67-5.5Q320.67-2.1 323.92-2.1ZM340.92 0.15L340.92 0.15Q340.52 0.15 340.32-0.18 340.12-0.5 340.12-0.85L340.12-0.85Q340.17-1.6 340.49-1.68 340.82-1.75 341.27-1.75L341.27-1.75Q342.67-1.75 343.19-2.23 343.72-2.7 343.79-3.5 343.87-4.3 343.87-5.15L343.87-5.15 343.87-29.5Q343.87-30.4 343.79-31.18 343.72-31.95 343.22-32.43 342.72-32.9 341.32-32.9L341.32-32.9Q340.87-32.9 340.49-33.02 340.12-33.15 340.12-33.9L340.12-33.9Q340.12-34.65 340.92-34.8L340.92-34.8Q343.22-35.15 344.44-35.5 345.67-35.85 346.32-36.1 346.97-36.35 347.47-36.4L347.47-36.4Q347.87-36.45 348.14-36.25 348.42-36.05 348.42-35.45L348.42-35.45 348.42-12.6Q350.62-13.05 352.02-14.45L352.02-14.45 356.22-18.75Q356.52-19.1 356.89-19.5 357.27-19.9 357.34-20.25 357.42-20.6 356.92-20.8 356.42-21 355.02-20.9L355.02-20.9Q354.47-21 354.42-21.8L354.42-21.8Q354.42-22.2 354.64-22.5 354.87-22.8 355.22-22.8L355.22-22.8Q356.37-22.75 357.99-22.7 359.62-22.65 360.72-22.65L360.72-22.65Q361.57-22.65 362.39-22.7 363.22-22.75 364.07-22.8L364.07-22.8Q364.47-22.8 364.67-22.5 364.87-22.2 364.87-21.8L364.87-21.8Q364.82-21.15 364.59-21.03 364.37-20.9 364.02-20.9L364.02-20.9Q362.07-20.9 360.87-20.2 359.67-19.5 358.17-17.95L358.17-17.95 353.97-13.65Q354.57-12.85 355.57-11.7 356.57-10.55 357.69-9.28 358.82-8 359.82-6.88 360.82-5.75 361.42-5.05L361.42-5.05Q362.87-3.5 363.84-2.68 364.82-1.85 366.27-1.75L366.27-1.75Q366.67-1.7 367.02-1.63 367.37-1.55 367.37-0.85L367.37-0.85Q367.37-0.5 367.19-0.18 367.02 0.15 366.57 0.15L366.57 0.15Q365.87 0.1 365.42 0.08 364.97 0.05 364.42 0.03 363.87 0 362.84 0 361.82 0 359.92 0L359.92 0Q358.17-1.9 355.89-4.55 353.62-7.2 351.37-9.8L351.37-9.8Q350.87-10.35 350.09-10.83 349.32-11.3 348.42-11.2L348.42-11.2 348.42-5.15Q348.42-4.3 348.49-3.5 348.57-2.7 349.09-2.23 349.62-1.75 350.97-1.75L350.97-1.75Q351.47-1.75 351.79-1.68 352.12-1.6 352.17-0.85L352.17-0.85Q352.17-0.5 351.97-0.18 351.77 0.15 351.37 0.15L351.37 0.15Q349.92 0.05 348.67 0.03 347.42 0 346.12 0L346.12 0Q344.77 0 343.57 0.03 342.37 0.05 340.92 0.15Z" opacity="1" transform="matrix(1,0,0,1,0,0)" fill="#000000" class="wordmark-text-0" data-fill-palette-color="primary" id="text-0"></path></svg></g></svg></g></svg></g></svg></g><g></g></svg></g></svg></g></svg></g></svg></g><defs></defs></svg><rect width="395.52" height="247.2" fill="none" stroke="none" visibility="hidden"></rect></g></svg></g></svg>